<svg width="1158" height="1225" viewBox="0 0 1158 1225" fill="none" xmlns="http://www.w3.org/2000/svg">
<path d="M1151 807C1198 1107.5 982.5 1141.5 715.5 1225C474.98 1225 280 1037.86 280 807C429.5 550.5 394 475 592 408C832.52 408 1151 576.145 1151 807Z" fill="white"/>
<path d="M399 100C399 44.7715 443.772 0 499 0C554.228 0 599 44.7715 599 100V576H399V100Z" fill="white"/>
<path d="M104.253 730.084C48.6562 687.822 42.1741 606.602 90.3645 556.056C136.562 507.601 213.908 507.672 260.017 556.211L557.985 869.879L416.889 1048.3L235.92 830.171L104.253 730.084Z" fill="white"/>
<path d="M619 388C619 332.772 663.772 288 719 288C774.228 288 819 332.772 819 388V864H619V388Z" fill="white"/>
<path d="M819 442C819 386.772 863.772 342 919 342C974.228 342 1019 386.772 1019 442V918H819V442Z" fill="white"/>
<path d="M1019 484C1019 446.445 1049.44 416 1087 416C1124.56 416 1155 446.445 1155 484V856C1155 931.111 1094.11 992 1019 992V484Z" fill="white"/>
</svg>
